<?xml version="1.0" encoding="UTF-8" standalone="no"?>
<svg
   xmlns:dc="http://purl.org/dc/elements/1.1/"
   xmlns:cc="http://creativecommons.org/ns#"
   xmlns:rdf="http://www.w3.org/1999/02/22-rdf-syntax-ns#"
   xmlns:svg="http://www.w3.org/2000/svg"
   xmlns="http://www.w3.org/2000/svg"
   id="svg4148"
   version="1.1"
   viewBox="0 0 210 297"
   height="297mm"
   width="210mm">
  <defs
     id="defs4142" />
  <metadata
     id="metadata4145">
    <rdf:RDF>
      <cc:Work
         rdf:about="">
        <dc:format>image/svg+xml</dc:format>
        <dc:type
           rdf:resource="http://purl.org/dc/dcmitype/StillImage" />
        <dc:title></dc:title>
      </cc:Work>
    </rdf:RDF>
  </metadata>
  <g
     id="layer1">
    <path
       id="path3855"
       style="fill:#e5e5e5;fill-opacity:1;fill-rule:nonzero;stroke:none;stroke-width:0.35277775"
       d="m 139.41611,135.61247 h 7.85142 v 2.43381 h -7.85142 z" />
    <path
       id="path3857"
       style="fill:#e5e5e5;fill-opacity:1;fill-rule:nonzero;stroke:none;stroke-width:0.35277775"
       d="m 139.41611,135.61247 h 7.72442 v 2.37031 h -7.72442 z" />
    <text
       id="text3861"
       style="font-variant:normal;font-weight:normal;font-size:2.11698413px;font-family:Arial;-inkscape-font-specification:Arial;writing-mode:lr-tb;fill:#000000;fill-opacity:1;fill-rule:nonzero;stroke:none;stroke-width:0.35277775"
       x="139.41615"
       y="137.51729">
      <tspan
         id="tspan3859"
         y="137.51729"
         x="139.41615 140.60103 141.7859 142.97078 144.07098 144.83289 146.01776"
         style="stroke-width:0.35277775">1387-08</tspan>
    </text>
    <path
       id="path3863"
       style="fill:#000000;fill-opacity:1;fill-rule:nonzero;stroke:none;stroke-width:0.35277775"
       d="M 8.2681529,34.622068 V 54.76956 H 76.434703 V 34.622068 H 8.2681529 l 0.0847,0.169334 H 76.350063 l -0.0847,-0.08467 V 54.68489 l 0.0847,-0.08467 H 8.3528529 l 0.0847,0.08467 V 34.706735 l -0.0847,0.08467 -0.0847,-0.169334" />
    <path
       id="path3865"
       style="fill:#000000;fill-opacity:1;fill-rule:nonzero;stroke:none;stroke-width:0.35277775"
       d="M 8.2681529,62.134147 V 75.255364 H 76.434703 V 62.134147 H 8.2681529 l 0.0847,0.169333 H 76.350063 l -0.0847,-0.08467 v 12.951883 l 0.0847,-0.08467 H 8.3528529 l 0.0847,0.08467 V 62.218814 l -0.0847,0.08467 -0.0847,-0.169333" />
    <path
       id="path3867"
       style="fill:#000000;fill-opacity:1;fill-rule:nonzero;stroke:none;stroke-width:0.35277775"
       d="M 79.313013,62.134147 V 75.255364 H 147.45803 V 62.134147 H 79.313013 l 0.0847,0.169333 h 67.975677 l -0.0847,-0.08467 v 12.951883 l 0.0847,-0.08467 H 79.397703 l 0.0843,0.08467 V 62.218814 l -0.0843,0.08467 -0.0847,-0.169333" />
    <path
       id="path3869"
       style="fill:#000000;fill-opacity:1;fill-rule:nonzero;stroke:none;stroke-width:0.35277775"
       d="M 8.2681529,91.085212 V 104.29109 H 147.45803 V 91.085212 H 8.2681529 l 0.0847,0.16933 H 147.37339 l -0.0847,-0.0847 v 13.036548 l 0.0847,-0.0847 H 8.3528229 l 0.0847,0.0847 V 91.169842 l -0.0847,0.0847 -0.0847,-0.16933" />
    <path
       id="path3871"
       style="fill:#000000;fill-opacity:1;fill-rule:nonzero;stroke:none;stroke-width:0.35277775"
       d="m 8.2681529,111.14803 v 13.12122 H 147.45803 V 111.14803 H 8.2681529 l 0.0847,0.16933 H 147.37339 l -0.0847,-0.0847 v 12.95189 l 0.0847,-0.0847 H 8.3528229 l 0.0847,0.0847 v -12.95188 l -0.0847,0.0847 -0.0847,-0.16933" />
    <path
       id="path3873"
       style="fill:#000000;fill-opacity:1;fill-rule:nonzero;stroke:none;stroke-width:0.35277775"
       d="M 79.313013,34.622068 V 54.76956 H 147.45803 V 34.622068 H 79.313013 l 0.0847,0.169334 h 67.975677 l -0.0847,-0.08467 V 54.68489 l 0.0847,-0.08467 H 79.397703 l 0.0843,0.08467 V 34.706735 l -0.0843,0.08467 -0.0847,-0.169334" />
    <path
       id="path3875"
       style="fill:none;stroke:#000000;stroke-width:0.02116667;stroke-linecap:butt;stroke-linejoin:miter;stroke-miterlimit:10;stroke-dasharray:none;stroke-opacity:1"
       d="M 113.34301,75.170697 V 90.662232" />
    <path
       id="path3877"
       style="fill:#000000;fill-opacity:1;fill-rule:evenodd;stroke:#000000;stroke-width:0.02116667;stroke-linecap:butt;stroke-linejoin:miter;stroke-miterlimit:10;stroke-dasharray:none;stroke-opacity:1"
       d="m 113.85101,88.376582 -0.508,2.28565 -0.42298,-2.28565 z" />
    <path
       id="path3879"
       style="fill:none;stroke:#000000;stroke-width:0.02116667;stroke-linecap:butt;stroke-linejoin:miter;stroke-miterlimit:10;stroke-dasharray:none;stroke-opacity:1"
       d="M 42.383173,75.170697 V 90.662232" />
    <path
       id="path3881"
       style="fill:#000000;fill-opacity:1;fill-rule:evenodd;stroke:#000000;stroke-width:0.02116667;stroke-linecap:butt;stroke-linejoin:miter;stroke-miterlimit:10;stroke-dasharray:none;stroke-opacity:1"
       d="m 42.806513,88.376582 -0.42334,2.28565 -0.508,-2.28565 z" />
    <path
       id="path3883"
       style="fill:none;stroke:#000000;stroke-width:0.02116667;stroke-linecap:butt;stroke-linejoin:miter;stroke-miterlimit:10;stroke-dasharray:none;stroke-opacity:1"
       d="m 113.34301,27.172813 v 7.025922" />
    <path
       id="path3885"
       style="fill:#000000;fill-opacity:1;fill-rule:evenodd;stroke:#000000;stroke-width:0.02116667;stroke-linecap:butt;stroke-linejoin:miter;stroke-miterlimit:10;stroke-dasharray:none;stroke-opacity:1"
       d="m 113.85101,31.913088 -0.508,2.285647 -0.42298,-2.285647 z" />
    <path
       id="path3887"
       style="fill:none;stroke:#000000;stroke-width:0.02116667;stroke-linecap:butt;stroke-linejoin:miter;stroke-miterlimit:10;stroke-dasharray:none;stroke-opacity:1"
       d="m 42.383173,27.172813 v 7.025922" />
    <path
       id="path3889"
       style="fill:#000000;fill-opacity:1;fill-rule:evenodd;stroke:#000000;stroke-width:0.02116667;stroke-linecap:butt;stroke-linejoin:miter;stroke-miterlimit:10;stroke-dasharray:none;stroke-opacity:1"
       d="m 42.806513,31.913088 -0.42334,2.285647 -0.508,-2.285647 z" />
    <path
       id="path3891"
       style="fill:none;stroke:#000000;stroke-width:0.02116667;stroke-linecap:butt;stroke-linejoin:miter;stroke-miterlimit:10;stroke-dasharray:none;stroke-opacity:1"
       d="m 77.873673,16.252577 v 9.988903 m -0.0212,0 11.02608,3.470627 v 3.978981" />
    <path
       id="path3893"
       style="fill:#000000;fill-opacity:1;fill-rule:evenodd;stroke:#000000;stroke-width:0.02116667;stroke-linecap:butt;stroke-linejoin:miter;stroke-miterlimit:10;stroke-dasharray:none;stroke-opacity:1"
       d="m 89.386583,31.405441 -0.508,2.285647 -0.508,-2.285647 z" />
    <path
       id="path3895"
       style="fill:none;stroke:#000000;stroke-width:0.02116667;stroke-linecap:butt;stroke-linejoin:miter;stroke-miterlimit:10;stroke-dasharray:none;stroke-opacity:1"
       d="m 77.852513,26.24148 -11.0049,3.470627 v 3.978981" />
    <path
       id="path3897"
       style="fill:#000000;fill-opacity:1;fill-rule:evenodd;stroke:#000000;stroke-width:0.02116667;stroke-linecap:butt;stroke-linejoin:miter;stroke-miterlimit:10;stroke-dasharray:none;stroke-opacity:1"
       d="m 66.339963,31.405441 0.50765,2.285647 0.42333,-2.285647 z" />
    <path
       id="path3899"
       style="fill:none;stroke:#000000;stroke-width:0.02116667;stroke-linecap:butt;stroke-linejoin:miter;stroke-miterlimit:10;stroke-dasharray:none;stroke-opacity:1"
       d="m 42.383173,124.26925 v 6.43361" />
    <path
       id="path3901"
       style="fill:#000000;fill-opacity:1;fill-rule:evenodd;stroke:#000000;stroke-width:0.02116667;stroke-linecap:butt;stroke-linejoin:miter;stroke-miterlimit:10;stroke-dasharray:none;stroke-opacity:1"
       d="m 42.806513,128.41721 -0.42334,2.28565 -0.508,-2.28565 z" />
    <path
       id="path3903"
       style="fill:none;stroke:#000000;stroke-width:0.02116667;stroke-linecap:butt;stroke-linejoin:miter;stroke-miterlimit:10;stroke-dasharray:none;stroke-opacity:1"
       d="m 113.34301,124.26925 v 6.43361" />
    <path
       id="path3905"
       style="fill:#000000;fill-opacity:1;fill-rule:evenodd;stroke:#000000;stroke-width:0.02116667;stroke-linecap:butt;stroke-linejoin:miter;stroke-miterlimit:10;stroke-dasharray:none;stroke-opacity:1"
       d="m 113.85101,128.41721 -0.508,2.28565 -0.42298,-2.28565 z" />
    <path
       id="path3907"
       style="fill:none;stroke:#000000;stroke-width:0.02116667;stroke-linecap:butt;stroke-linejoin:miter;stroke-miterlimit:10;stroke-dasharray:none;stroke-opacity:1"
       d="m 104.87776,104.20642 v 6.51828" />
    <path
       id="path3909"
       style="fill:#000000;fill-opacity:1;fill-rule:evenodd;stroke:#000000;stroke-width:0.02116667;stroke-linecap:butt;stroke-linejoin:miter;stroke-miterlimit:10;stroke-dasharray:none;stroke-opacity:1"
       d="m 105.38576,108.43905 -0.508,2.28565 -0.50765,-2.28565 z" />
    <path
       id="path3911"
       style="fill:none;stroke:#000000;stroke-width:0.02116667;stroke-linecap:butt;stroke-linejoin:miter;stroke-miterlimit:10;stroke-dasharray:none;stroke-opacity:1"
       d="m 122.90893,104.20642 v 6.51828" />
    <path
       id="path3913"
       style="fill:#000000;fill-opacity:1;fill-rule:evenodd;stroke:#000000;stroke-width:0.02116667;stroke-linecap:butt;stroke-linejoin:miter;stroke-miterlimit:10;stroke-dasharray:none;stroke-opacity:1"
       d="m 123.33226,108.43905 -0.42333,2.28565 -0.508,-2.28565 z" />
    <path
       id="path3915"
       style="fill:none;stroke:#000000;stroke-width:0.02116667;stroke-linecap:butt;stroke-linejoin:miter;stroke-miterlimit:10;stroke-dasharray:none;stroke-opacity:1"
       d="m 141.36309,104.20642 v 6.51828" />
    <path
       id="path3917"
       style="fill:#000000;fill-opacity:1;fill-rule:evenodd;stroke:#000000;stroke-width:0.02116667;stroke-linecap:butt;stroke-linejoin:miter;stroke-miterlimit:10;stroke-dasharray:none;stroke-opacity:1"
       d="m 141.87109,108.43905 -0.508,2.28565 -0.508,-2.28565 z" />
    <path
       id="path3919"
       style="fill:none;stroke:#000000;stroke-width:0.02116667;stroke-linecap:butt;stroke-linejoin:miter;stroke-miterlimit:10;stroke-dasharray:none;stroke-opacity:1"
       d="m 86.846933,104.20642 v 6.51828" />
    <path
       id="path3921"
       style="fill:#000000;fill-opacity:1;fill-rule:evenodd;stroke:#000000;stroke-width:0.02116667;stroke-linecap:butt;stroke-linejoin:miter;stroke-miterlimit:10;stroke-dasharray:none;stroke-opacity:1"
       d="m 87.354933,108.43905 -0.508,2.28565 -0.42333,-2.28565 z" />
    <path
       id="path3923"
       style="fill:none;stroke:#000000;stroke-width:0.02116667;stroke-linecap:butt;stroke-linejoin:miter;stroke-miterlimit:10;stroke-dasharray:none;stroke-opacity:1"
       d="m 68.371613,104.20642 v 6.51828" />
    <path
       id="path3925"
       style="fill:#000000;fill-opacity:1;fill-rule:evenodd;stroke:#000000;stroke-width:0.02116667;stroke-linecap:butt;stroke-linejoin:miter;stroke-miterlimit:10;stroke-dasharray:none;stroke-opacity:1"
       d="m 68.794943,108.43905 -0.42333,2.28565 -0.508,-2.28565 z" />
    <path
       id="path3927"
       style="fill:none;stroke:#000000;stroke-width:0.02116667;stroke-linecap:butt;stroke-linejoin:miter;stroke-miterlimit:10;stroke-dasharray:none;stroke-opacity:1"
       d="m 50.340433,104.20642 v 6.51828" />
    <path
       id="path3929"
       style="fill:#000000;fill-opacity:1;fill-rule:evenodd;stroke:#000000;stroke-width:0.02116667;stroke-linecap:butt;stroke-linejoin:miter;stroke-miterlimit:10;stroke-dasharray:none;stroke-opacity:1"
       d="m 50.848433,108.43905 -0.508,2.28565 -0.42333,-2.28565 z" />
    <path
       id="path3931"
       style="fill:none;stroke:#000000;stroke-width:0.02116667;stroke-linecap:butt;stroke-linejoin:miter;stroke-miterlimit:10;stroke-dasharray:none;stroke-opacity:1"
       d="m 32.394273,104.20642 v 6.51828" />
    <path
       id="path3933"
       style="fill:#000000;fill-opacity:1;fill-rule:evenodd;stroke:#000000;stroke-width:0.02116667;stroke-linecap:butt;stroke-linejoin:miter;stroke-miterlimit:10;stroke-dasharray:none;stroke-opacity:1"
       d="m 32.817253,108.43905 -0.42298,2.28565 -0.508,-2.28565 z" />
    <path
       id="path3935"
       style="fill:none;stroke:#000000;stroke-width:0.02116667;stroke-linecap:butt;stroke-linejoin:miter;stroke-miterlimit:10;stroke-dasharray:none;stroke-opacity:1"
       d="m 13.855093,104.20642 v 6.51828" />
    <path
       id="path3937"
       style="fill:#000000;fill-opacity:1;fill-rule:evenodd;stroke:#000000;stroke-width:0.02116667;stroke-linecap:butt;stroke-linejoin:miter;stroke-miterlimit:10;stroke-dasharray:none;stroke-opacity:1"
       d="m 14.363093,108.43905 -0.508,2.28565 -0.42298,-2.28565 z" />
    <path
       id="path3939"
       style="fill:none;stroke:#000000;stroke-width:0.02116667;stroke-linecap:butt;stroke-linejoin:miter;stroke-miterlimit:10;stroke-dasharray:none;stroke-opacity:1"
       d="m 42.383173,54.684893 v 7.025921" />
    <path
       id="path3941"
       style="fill:#000000;fill-opacity:1;fill-rule:evenodd;stroke:#000000;stroke-width:0.02116667;stroke-linecap:butt;stroke-linejoin:miter;stroke-miterlimit:10;stroke-dasharray:none;stroke-opacity:1"
       d="m 42.806513,59.425168 -0.42334,2.285646 -0.508,-2.285646 z" />
    <path
       id="path3943"
       style="fill:none;stroke:#000000;stroke-width:0.02116667;stroke-linecap:butt;stroke-linejoin:miter;stroke-miterlimit:10;stroke-dasharray:none;stroke-opacity:1"
       d="m 113.34301,54.684893 v 7.025921" />
    <path
       id="path3945"
       style="fill:#000000;fill-opacity:1;fill-rule:evenodd;stroke:#000000;stroke-width:0.02116667;stroke-linecap:butt;stroke-linejoin:miter;stroke-miterlimit:10;stroke-dasharray:none;stroke-opacity:1"
       d="m 113.85101,59.425168 -0.508,2.285646 -0.42298,-2.285646 z" />
    <text
       id="text3967"
       style="font-variant:normal;font-weight:normal;font-size:3.1321373px;font-family:'Times New Roman';-inkscape-font-specification:TimesNewRoman;writing-mode:lr-tb;fill:#000000;fill-opacity:1;fill-rule:nonzero;stroke:none;stroke-width:0.35277775"
       x="100.39135"
       y="44.018551">
      <tspan
         id="tspan3947"
         y="44.018551"
         x="100.39135 102.17854 103.5335 104.62223 105.46917 107.08096 108.60474 110.04114 111.05689 112.49329 113.34022 114.18684 115.5418 116.98133 117.99708 118.75881 121.21442 122.82621 124.438 125.79297"
         style="stroke-width:0.35277775">Peripheral ear model</tspan>
      <tspan
         id="tspan3949"
         y="47.658722"
         x="101.99969 103.01545 104.79263 105.72443 106.57136 107.41828 108.85782 109.87357 111.48193 112.83689 114.44712 116.05735 116.81908 118.42932 119.78428 121.04684 122.40181 124.01204"
         style="stroke-width:0.35277775">(Filterbank based)</tspan>
      <tspan
         id="tspan3951"
         y="98.61953"
         x="57.620754 59.752178 61.107128 62.038952 63.393902 65.002251 65.84919 67.282143 68.129066 69.562019 70.323753 72.802849 74.411201 75.93499 77.374519 78.221443 79.068062 80.59185 82.200203 83.047127 84.655479 86.263832 87.110771 87.872505 89.480858 90.913811 91.760735 93.369087 94.724052"
         style="stroke-width:0.35277775">Calculate model output values</tspan>
      <tspan
         id="tspan3953"
         y="118.68214"
         x="43.060696 45.17709 46.53204 47.463863 48.818813 50.427181 51.274105 52.713634 53.560558 55.000088 55.761822 57.370174 58.893963 60.333492 61.180431 62.11224 62.959164 64.567528 65.329247 67.784843 69.224373 70.577782 71.846916 73.37571 74.497337 75.850731 76.69735 77.703087 79.142601 80.148338 80.995262 81.927086 82.942833 83.789757 85.229286 86.076225 87.515755 88.362679 89.209297 90.738091 92.17762 93.706429 94.80674 96.160133 97.091942 97.853676 99.462044 100.81699 101.7488 104.03402 105.56281 106.66314 108.19193"
         style="stroke-width:0.35277775">Calculate quality measure (artificial neural network)</tspan>
      <tspan
         id="tspan3955"
         y="134.76596"
         x="32.225063 34.510281 35.357204 36.620708 37.467648 39.078808 40.09457 41.026379 41.873302 43.484478 45.008266 45.854885 46.701809 48.310162 49.83395 51.273479"
         style="stroke-width:0.35277775">Distortion index</tspan>
      <tspan
         id="tspan3957"
         y="24.97171"
         x="103.43891 105.22361 106.07053 107.50443 109.02821 110.6375 112.07139 113.42635 115.03471 115.79644 116.64337 118.0829 119.69219 121.04716"
         style="stroke-width:0.35277775">Playback level</tspan>
      <tspan
         id="tspan3959"
         y="69.498802"
         x="19.442501 21.22813 22.243893 23.678722 24.694469 26.304699 27.320461 28.930691 30.285641 31.720486 32.905056 34.167614 35.014553 36.624783 38.235012 38.996746 40.606976 41.622738 42.384472 43.819302 45.429531 46.784496 47.631435 48.563244 49.918209 50.850002 51.696941 53.307171 54.830959 55.677578 57.201366 58.640896 59.48782 60.419628 61.774593 62.87492 64.398689 90.323082 92.108711 93.124458 94.559303 95.57505 97.185295 98.201042 99.811272 101.16624 102.60107 103.78564 105.04821 105.89513 107.50536 109.11559 109.87733 111.48756 112.50331 113.26505 114.69988 116.31011 117.66508 118.512 119.44382 120.79878 121.73059 122.57751 124.18775 125.71154 126.55815 128.08194 129.52147 130.36841 131.30022 132.65517 133.75549 135.27927"
         style="stroke-width:0.35277775">Pre-processing of excitation patternsPre-processing of excitation patterns</tspan>
      <tspan
         id="tspan3961"
         y="44.018551"
         x="29.008358 30.795559 32.150524 33.239254 34.086178 35.697979 37.221767 38.658169 39.673916 41.110317 41.957256 42.80386 44.158825 45.598354 46.614101 47.375851 49.831448 51.443233 53.055035 54.41"
         style="stroke-width:0.35277775">Peripheral ear model</tspan>
      <tspan
         id="tspan3963"
         y="47.658722"
         x="34.426022 35.441784 37.224895 39.008022 40.963421 41.725155 43.332882 44.687847 45.947903 47.302868 48.910595"
         style="stroke-width:0.35277775">(FFT based)</tspan>
      <tspan
         id="tspan3965"
         y="25.056591"
         x="32.394512 34.179211 35.02615 36.460033 37.983822 39.593105 41.027004 42.381969 43.990322 44.752056 45.59898 47.038509 48.647808 50.002773"
         style="stroke-width:0.35277775">Playback level</tspan>
    </text>
    <path
       id="path3969"
       style="fill:#ffffff;fill-opacity:1;fill-rule:nonzero;stroke:none;stroke-width:0.35277775"
       d="m 12.924113,78.471993 h 58.64296 v 7.259108 h -58.64296 z" />
    <path
       id="path3971"
       style="fill:#ffffff;fill-opacity:1;fill-rule:nonzero;stroke:none;stroke-width:0.35277775"
       d="m 12.924113,78.471993 h 58.60062 v 3.555294 h -58.60062 z" />
    <text
       id="text3977"
       style="font-variant:normal;font-weight:normal;font-size:3.1321373px;font-family:'Times New Roman';-inkscape-font-specification:TimesNewRoman;writing-mode:lr-tb;fill:#000000;fill-opacity:1;fill-rule:nonzero;stroke:none;stroke-width:0.35277775"
       x="12.924083"
       y="81.265671">
      <tspan
         id="tspan3973"
         y="81.265671"
         x="12.924083 14.883235 16.407024 17.843105 18.690029 19.621838 20.976803 21.908611 22.75555 24.367031 25.89082 26.737438 28.261211 29.700756 30.54768 31.479488 32.834454 33.850201 35.461697 36.725506 37.48724 38.248974 39.512798 41.036587 42.472668 43.908749 44.755688 45.771435 46.703243 48.058208 48.904827 49.751751 51.360104 52.883892 54.495373 56.106869 57.461819 58.725643 59.910213 60.671947 62.283428 63.719524 64.566444 65.413383 66.852913 67.86866 69.477013 70.682884"
         style="stroke-width:0.35277775">Excitation patterns, specific loudness patterns,</tspan>
      <tspan
         id="tspan3975"
         y="84.905846"
         x="21.643322 24.098614 25.706966 27.237316 28.845669 29.692608 31.132137 31.979061 32.910885 34.441235 36.049587 36.811321 38.419674 39.774639 40.706448 41.553387 42.992916 44.008663 45.617016 46.801601 47.648205 48.409939 49.764904 50.865231 51.872524 53.480877 54.488171 55.334789 56.517483 57.449291 58.979656 60.588009 61.942974"
         style="stroke-width:0.35277775">modulation patterns, error signal</tspan>
    </text>
    <path
       id="path3979"
       style="fill:#ffffff;fill-opacity:1;fill-rule:nonzero;stroke:none;stroke-width:0.35277775"
       d="M 84.137953,78.641326 H 142.7809 v 7.174442 H 84.137953 Z" />
    <path
       id="path3981"
       style="fill:#ffffff;fill-opacity:1;fill-rule:nonzero;stroke:none;stroke-width:0.35277775"
       d="M 84.137953,78.641326 H 142.73857 V 82.19662 H 84.137953 Z" />
    <text
       id="text3985"
       style="font-variant:normal;font-weight:normal;font-size:3.1321373px;font-family:'Times New Roman';-inkscape-font-specification:TimesNewRoman;writing-mode:lr-tb;fill:#000000;fill-opacity:1;fill-rule:nonzero;stroke:none;stroke-width:0.35277775"
       x="84.138023"
       y="81.434967">
      <tspan
         id="tspan3983"
         y="81.434967"
         x="84.138023 86.097176 87.620964 89.057045 89.903969 90.835793 92.190758 93.122566 93.96949 95.580971 97.104759 97.951378 99.475166 100.91468 101.76162 102.69343 104.04839 105.06414 106.67564 107.93945 108.70119 109.46292 110.72673 112.25053 113.6866 115.12269 115.96962 116.98537 117.91718 119.27215 120.11876 120.96569 122.57404 124.09783 125.70931 127.3208 128.67577 129.93958 131.12416 131.88589 133.49738 134.93346 135.7804 136.62732 138.06686 139.08261 140.69096 141.87553"
         style="stroke-width:0.35277775">Excitation patterns, specific loudness patterns,</tspan>
    </text>
    <path
       id="path3987"
       style="fill:#ffffff;fill-opacity:1;fill-rule:nonzero;stroke:none;stroke-width:0.35277775"
       d="m 100.89913,82.281639 h 25.16293 v 3.555296 h -25.16293 z" />
    <text
       id="text3995"
       style="font-variant:normal;font-weight:normal;font-size:3.1321373px;font-family:'Times New Roman';-inkscape-font-specification:TimesNewRoman;writing-mode:lr-tb;fill:#000000;fill-opacity:1;fill-rule:nonzero;stroke:none;stroke-width:0.35277775"
       x="100.89924"
       y="85.075043">
      <tspan
         id="tspan3989"
         y="85.075043"
         x="100.89924 103.35484 104.96319 106.48696 108.09531 108.94288 110.3824 111.22996 112.16177 113.68555 115.29391 116.05564 117.664 119.01896 119.95077 120.7977 122.23723 123.25298 124.86134"
         style="stroke-width:0.35277775">modulation patterns</tspan>
      <tspan
         id="tspan3991"
         y="134.76608"
         x="95.566139 97.851341 99.459709 100.30663 101.74616 103.10113 103.94807 104.87048 106.39425 107.8366 108.59834 110.21609 111.06301 112.1577 113.17345 114.6158 115.63155 117.07391 118.59769 120.04003 121.395 122.24162 123.7654 124.86572 126.22068 127.82904"
         style="stroke-width:0.35277775">Objective difference grade</tspan>
      <tspan
         id="tspan3993"
         y="13.628475"
         x="48.478222 49.493969 51.106701 52.719448 54.243221 55.175045 55.936779 57.724911 58.57185 60.184582 61.70837 63.145702 63.992626 65.257698 66.019432 67.109108 69.140923 70.601753 71.6175 73.054848 74.070595 75.507942 77.120674 78.475639 79.915169 80.676903 82.11425 83.638023 85.250755 86.012489 87.277565 88.124489 89.737236 91.261024 92.698357 93.545296 94.391899 95.915688 97.528435 99.141167 100.49613 101.58581 102.34754 103.19447 104.634 105.81857 106.75037"
         style="stroke-width:0.35277775">Input Signals (Reference and signal under test)</tspan>
    </text>
  </g>
</svg>
